<?xml version="1.0" encoding="utf-8"?>
<!-- Generator: Adobe Illustrator 19.1.0, SVG Export Plug-In . SVG Version: 6.00 Build 0)  -->
<svg version="1.1" id="Lager_1" xmlns="http://www.w3.org/2000/svg" xmlns:xlink="http://www.w3.org/1999/xlink" x="0px" y="0px"
	 viewBox="373 171 214 219" style="enable-background:new 373 171 214 219;" xml:space="preserve">
<style type="text/css">
	.st0{fill:#8FB6B3;}
	.st1{fill:none;stroke:#F3CBCC;stroke-miterlimit:10;}
	.st2{fill:none;stroke:#4D4C4C;stroke-width:8;stroke-miterlimit:10;}
	.st3{fill:#4D4C4C;}
	.st4{fill:#E4D9D0;}
	.st5{fill:none;stroke:#E4D9D0;stroke-width:12;}
	.st6{fill:#F1D3B6;}
	.st7{fill:#E9CDB5;}
	.st8{fill:#F1D3B6;stroke:#E9CEB6;}
	.st9{fill:none;stroke:#E9CEB6;}
	.st10{fill:#262867;}
	.st11{fill:none;stroke:#262867;stroke-miterlimit:10;}
	.st12{fill:#F5BC8B;}
	.st13{fill:none;stroke:#6A9FCB;stroke-miterlimit:10;}
	.st14{fill:#E4D9D0;stroke:#E4D9D0;stroke-width:12;}
	.st15{fill:#E0E0E0;}
	.st16{fill:#4D4C4C;stroke:#59595A;stroke-width:0.5;}
</style>
<g>
	<circle class="st0" cx="480.1" cy="279.1" r="102.1"/>
	<path class="st1" d="M466,296.9c0.9,0.1,1.9,0.6,2.8,0.9c1.2,0.3,2.4,0.3,3.6,0.5c2.7,0.3,5.3,0.2,8,0.3c2.7,0.1,5.3,0.1,7.8-0.8
		c1.4-0.5,3-0.6,4.3-1.1"/>
	<line class="st2" x1="430.6" y1="364.5" x2="526" y2="364.5"/>
	<g>
		<g>
			<path class="st3" d="M524.3,368.1c1,0,1.3,0.7,1.5,1.6c0.1,0.5,1.8,0,1.9-0.4c0.1-0.6,0-1.3,0.3-1.8c-0.6,0.1-1.2,0.2-1.9,0.3
				c0.3,0.5,0.5,0.9,0.8,1.4s1.5-0.1,1.8-0.4c0.4-0.2,0.3-0.3-0.1-0.2c0.4,0.1,1,0,1.4-0.2c0.2-0.1,0.7-0.5,0.2-0.6
				c-1.3-0.3-2.3,0.2-3.2,1.1c0.6-0.1,1.2-0.3,1.8-0.4c-0.3-0.4-0.4-0.8-0.7-1.2c-0.3-0.5-1.6-0.1-1.9,0.3c-0.4,0.6-0.3,1.3-0.5,2.1
				c0.6-0.1,1.3-0.3,1.9-0.4c-0.3-1.5-1.2-1.9-2.7-2C524.5,367.1,523.1,368,524.3,368.1L524.3,368.1z"/>
		</g>
	</g>
	<g>
		
			<image style="overflow:visible;opacity:0.15;enable-background:new    ;" width="137" height="164" xlink:href="A15F0DEE7CE45C9B.png"  transform="matrix(1 0 0 1 411 193)">
		</image>
		<g>
			
				<image style="overflow:visible;opacity:0.95;enable-background:new    ;" width="117" height="146" xlink:href="A15F0DEE7CE45C99.png"  transform="matrix(1 0 0 1 421 200)">
			</image>
			<g>
				<path class="st4" d="M526,302.5c0,3.3-1.3,33.7-4.5,33.7h-88.3c-3.2,0-5.7-30.4-5.7-33.7l5.7-69.7c0-1.6,3.8-9.7,9.8-15.2
					c6.1-5.6,12-6.8,13.6-6.8l20.2-1.5l17,0.8c1.7,0,11.4,2.9,18.8,9.5c6.5,5.8,9,14.3,9,15.8L526,302.5z"/>
				<path class="st5" d="M526,302.5c0,3.3-1.3,33.7-4.5,33.7h-88.3c-3.2,0-5.7-30.4-5.7-33.7l5.7-69.7c0-1.6,3.8-9.7,9.8-15.2
					c6.1-5.6,12-6.8,13.6-6.8l20.2-1.5l17,0.8c1.7,0,11.4,2.9,18.8,9.5c6.5,5.8,9,14.3,9,15.8L526,302.5z"/>
			</g>
		</g>
	</g>
	<rect x="463.2" y="311.8" class="st6" width="31.9" height="13.1"/>
	<polygon class="st7" points="495,313.6 492.8,316.5 489.2,319.3 485.8,320.8 475.4,321.9 470.3,321.3 467.2,319.2 465.2,317.7 
		463.2,315.6 459.1,309.6 497.6,308.9 	"/>
	<circle class="st8" cx="438.4" cy="265.6" r="10.2"/>
	<circle class="st8" cx="515.9" cy="268.5" r="10.2"/>
	<g>
		
			<image style="overflow:visible;opacity:0.15;enable-background:new    ;" width="101" height="119" xlink:href="A15F0DEE7CE45C9F.png"  transform="matrix(1 0 0 1 428 213)">
		</image>
		<g>
			<path class="st6" d="M518.6,269.4c0,13.7-8.6,24.5-15.9,33.5S489.4,319,478.2,319c-11.9,0-19.4-8.5-26.8-18.5
				c-6.5-8.8-13.6-18.3-13.6-31.1c0-27.4,18.1-49.7,40.4-49.7C500.5,219.8,518.6,242,518.6,269.4z"/>
			<path class="st9" d="M518.6,269.4c0,13.7-8.6,24.5-15.9,33.5S489.4,319,478.2,319c-11.9,0-19.4-8.5-26.8-18.5
				c-6.5-8.8-13.6-18.3-13.6-31.1c0-27.4,18.1-49.7,40.4-49.7C500.5,219.8,518.6,242,518.6,269.4z"/>
		</g>
	</g>
	<ellipse class="st10" cx="494.5" cy="264.4" rx="3.4" ry="3.5"/>
	<ellipse class="st10" cx="461.1" cy="264.4" rx="3.4" ry="3.5"/>
	<path class="st11" d="M472.9,276.8c0-1.3,2.3-2.3,5.2-2.3c2.9,0,5.2,1.1,5.2,2.3"/>
	<g>
		<g>
			<path class="st4" d="M469.5,253.7c-7.1-1-14.2-1.2-20.3,3.4c-1.2,0.9-0.9,1.7,0.5,2c1.7,0.2,4.1-0.4,5.5-1.5
				c2.7-2,6.3-0.9,9.3-0.5c1.7,0.2,4.1-0.4,5.5-1.5C471.2,254.7,471.1,253.9,469.5,253.7L469.5,253.7z"/>
		</g>
	</g>
	<g>
		<g>
			<path class="st4" d="M505.6,252.9c-7.5-1.7-14.3-2.3-21.1,2c-1.3,0.8-0.8,1.8,0.5,2c1.8,0.3,4-0.5,5.5-1.5
				c2.3-1.4,6.3,0.2,8.8,0.7c1.8,0.4,3.8-0.1,5.4-0.9C505.4,254.8,507.4,253.3,505.6,252.9L505.6,252.9z"/>
		</g>
	</g>
	<ellipse class="st12" cx="455.6" cy="276.8" rx="0.8" ry="0.9"/>
	<ellipse class="st12" cx="462.7" cy="280.7" rx="0.8" ry="0.9"/>
	<ellipse class="st12" cx="463.6" cy="274.7" rx="0.8" ry="0.9"/>
	<ellipse class="st12" cx="490.5" cy="276.8" rx="0.8" ry="0.9"/>
	<ellipse class="st12" cx="498.5" cy="280.7" rx="0.8" ry="0.9"/>
	<ellipse class="st12" cx="498.5" cy="274.7" rx="0.8" ry="0.9"/>
	<ellipse class="st12" cx="457.4" cy="281.7" rx="0.8" ry="0.9"/>
	<ellipse class="st13" cx="461.1" cy="264.5" rx="2" ry="2.2"/>
	<ellipse class="st13" cx="494.5" cy="264.4" rx="2" ry="2.2"/>
	<g>
		<g>
			<path class="st10" d="M499.3,261.6c0.6-0.6,1.2-1.4,1.4-2.3c0.1-0.5-1.8-0.2-1.9,0.3c-0.2,0.8-0.6,1.5-1.2,2.1
				c-0.3,0.3,0.3,0.4,0.5,0.4C498.5,262.1,499,262,499.3,261.6L499.3,261.6z"/>
		</g>
	</g>
	<g>
		<g>
			<path class="st10" d="M499.2,263.5c1.4-0.3,2.5-1.1,3.1-2.4c0.1-0.3-0.7-0.2-0.8-0.1c-0.3,0.1-1,0.2-1.1,0.5
				c-0.3,0.6-0.8,1.4-1.3,1.5c-0.2,0-1,0.3-0.9,0.5C498.2,263.7,499,263.5,499.2,263.5L499.2,263.5z"/>
		</g>
	</g>
	<g>
		<g>
			<path class="st10" d="M457.8,262c-0.7-0.4-1.3-0.8-1.6-1.5c-0.3-0.5-2.1,0.1-1.9,0.5c0.4,0.8,1,1.3,1.8,1.7
				c0.4,0.2,0.9,0.1,1.3-0.1C457.3,262.6,458.1,262.2,457.8,262L457.8,262z"/>
		</g>
	</g>
	<g>
		<g>
			<path class="st10" d="M456.8,263.8c-0.8-0.1-1.4-0.4-1.9-1c-0.3-0.4-2,0.4-1.9,0.5c0.7,0.8,1.5,1.2,2.6,1.2c0.4,0,1-0.1,1.4-0.4
				C457.2,264,457.2,263.8,456.8,263.8L456.8,263.8z"/>
		</g>
	</g>
	<g>
		<g>
			<g>
				<path class="st4" d="M468.2,221.4c-0.4,6.9-2.7,12.5-8,17s-12.3,9.9-19.2,10.9c-2.1,0.3-7.4,1.6-7.8,4.3c-0.4,2.8,4,2.5,5.7,2.3
					c11.2-1.6,21.1-7.5,30-14.3c7.4-5.7,12.2-12.6,12.7-22C482,214.6,468.5,217.4,468.2,221.4L468.2,221.4z"/>
			</g>
		</g>
		<g>
			<g>
				<path class="st4" d="M471.5,224.9c15.4,8.8,24.4,33.4,44.6,32.3c2.8-0.2,7.1-2.1,7.5-5.3c0.4-3.4-3.6-4.3-6.2-4.1
					c-6,0.3-13.3-9.4-17-13.3c-5.8-6-11-12.9-18.4-17.1c-2.9-1.7-7-1.1-9.7,0.9C470.3,219.8,468.5,223.2,471.5,224.9L471.5,224.9z"
					/>
			</g>
		</g>
		<path class="st14" d="M441.6,229.9c0,6.1-6.3,19.7,1.5,19.7s26.8-13.6,26.8-19.7c0-6.1-6.3-11.1-14.2-11.1
			C447.9,218.8,441.6,223.8,441.6,229.9z"/>
		<path class="st14" d="M507.2,248c2.6-4.1,14.4-8.7,7-14.3c-7.4-5.6-31.2-10.2-33.8-6.1"/>
	</g>
	<g>
		<g>
			<path class="st15" d="M468.7,217.9c-2.3,14.3-17.6,22.4-29.1,28.9c-1.1,0.6,0.6,0.9,1.2,0.6c11.8-6.6,27.5-15,29.8-29.7
				C470.7,216.9,468.8,217.3,468.7,217.9L468.7,217.9z"/>
		</g>
	</g>
	<g>
		<g>
			<path class="st15" d="M463.3,215.5c-8.6,5.9-14.2,16.2-24.4,19.8c-1.3,0.5-0.1,0.6,0.7,0.4c10.6-3.7,16.2-14,25.2-20.1
				C465.5,215,463.6,215.3,463.3,215.5L463.3,215.5z"/>
		</g>
	</g>
	<g>
		<g>
			<path class="st15" d="M479.7,223.7c7.8,8.8,13.2,21.4,25.4,25c0.7,0.2,2.3-0.8,1.2-1.1c-11.8-3.4-17.2-16.1-24.7-24.6
				C481,222.3,479.1,223.1,479.7,223.7L479.7,223.7z"/>
		</g>
	</g>
	<g>
		<g>
			<path class="st15" d="M484.7,219.1c7.2,7.1,15.4,12.6,23.9,18c0.5,0.3,2.2-0.5,1.8-0.7c-8.5-5.4-16.7-10.9-23.9-18
				C486.1,218,484.3,218.7,484.7,219.1L484.7,219.1z"/>
		</g>
	</g>
	<g>
		
			<image style="overflow:visible;opacity:0.95;enable-background:new    ;" width="110" height="34" xlink:href="A15F0DEE7CE45C98.png"  transform="matrix(1 0 0 1 427 338)">
		</image>
		<g>
			<path class="st3" d="M427.9,367.4V355c0-13.7,10.9-13.1,10.9-13.1h82.6c6.4,0,9,6.7,9,13.1v13.1"/>
		</g>
	</g>
	<g>
		<path class="st3" d="M499.8,343.5c0,1.4-2.3,0.2-4.3,0.2H463c-2,0-4.3,1.3-4.3-0.2l0.7-16.6c0-1.4,1.6-2.6,3.6-2.6h32.5
			c2,0,3.6,1.2,3.6,2.6L499.8,343.5z"/>
		<polyline class="st16" points="464.3,324.5 464,325.4 463.7,326.4 464,343.7 		"/>
		<polyline class="st16" points="466.7,324.5 466.3,325.4 466.1,326.4 466.3,343.7 		"/>
		<polyline class="st16" points="468.7,324.5 468.4,325.4 468.1,326.4 468.4,343.7 		"/>
		<polyline class="st16" points="462.4,324.4 462,325.3 461.8,326.4 462,343.6 		"/>
		<polyline class="st16" points="471,324.4 470.7,325.3 470.4,326.4 470.7,343.6 		"/>
		<polyline class="st16" points="473.6,324.5 473.2,325.4 473,326.4 473.2,343.7 		"/>
		<polyline class="st16" points="475.9,324.4 475.5,325.3 475.3,326.4 475.5,343.6 		"/>
		<polyline class="st16" points="478.8,324.4 478.5,325.3 478.2,326.4 478.5,343.6 		"/>
		<polyline class="st16" points="480.7,324.3 480.4,325.3 480.1,326.3 480.4,343.5 		"/>
		<polyline class="st16" points="483.1,324.5 482.8,325.4 482.5,326.4 482.8,343.7 		"/>
		<polyline class="st16" points="485.8,324.3 485.4,325.3 485.2,326.3 485.4,343.5 		"/>
		<polyline class="st16" points="488.4,324.3 488,325.3 487.8,326.3 488,343.5 		"/>
		<polyline class="st16" points="490.6,324.5 490.3,325.4 490,326.4 490.3,343.7 		"/>
		<polyline class="st16" points="493.1,324.3 492.7,325.3 492.5,326.3 492.7,343.5 		"/>
		<polyline class="st16" points="495.1,324.5 494.8,325.4 494.5,326.4 494.8,343.7 		"/>
		<polyline class="st16" points="497.1,325.2 496.7,326.1 496.4,327.1 496.7,343.7 		"/>
	</g>
	<g>
		<g>
			<path class="st15" d="M432.1,279.9c0,9.5,0.2,19,0.6,28.5c0.5,9.2,2.3,17.8,3.6,26.8c0.1,0.8,2,0.3,1.9-0.5
				c-1.1-8.4-3-16.4-3.5-24.9c-0.5-10-0.7-20.1-0.7-30.1C434,278.8,432.1,279.1,432.1,279.9L432.1,279.9z"/>
		</g>
	</g>
	<g>
		<g>
			<path class="st15" d="M501.3,310c0,10,5.6,20,0.4,29.4c-0.5,0.9,1.4,0.9,1.8,0.2c5.3-9.7-0.2-19.6-0.3-29.8
				C503.3,308.8,501.3,309.2,501.3,310L501.3,310z"/>
		</g>
	</g>
	<g>
		<g>
			<path class="st15" d="M446.3,307.1c0,9.2,0.1,18.4,1.9,27.5c0.1,0.7,2.1,0.2,1.9-0.5c-1.9-9-1.9-18.1-1.9-27.2
				C448.2,306,446.3,306.4,446.3,307.1L446.3,307.1z"/>
		</g>
	</g>
	<g>
		<g>
			<path class="st15" d="M514.5,292.2c0.5,16.1,5.6,32.5,0.7,48.4c-0.1,0.4,1.7,0.2,1.9-0.3c4.9-16-0.1-32.4-0.6-48.6
				C516.4,291.3,514.5,291.6,514.5,292.2L514.5,292.2z"/>
		</g>
	</g>
	<g>
		<g>
			<path class="st10" d="M465.9,296.5c4.7-0.1,9.3,1.2,14,0.8c5.5-0.5,10.1-2.8,13.9-6.8c0.8-0.8-1.1-0.9-1.6-0.4
				c-7.7,8.2-16.1,5-25.7,5.2C465.8,295.4,464.6,296.5,465.9,296.5L465.9,296.5z"/>
		</g>
	</g>
	<path class="st3" d="M529.9,368.4c-14.4,8-30.9,14-48.5,14c-19.8,0-38.9-4.8-53.9-15.7"/>
</g>
</svg>
